<svg width="45" height="45" viewBox="0 0 45 45" fill="none" xmlns="http://www.w3.org/2000/svg">
<path d="M42.1875 20.0391H39.9867L35.0648 11.4346C34.8485 11.0598 34.5371 10.7487 34.1621 10.5327C33.7872 10.3166 33.3619 10.2033 32.9291 10.2041H12.0656C11.6329 10.2033 11.2076 10.3166 10.8326 10.5327C10.4576 10.7487 10.1463 11.0598 9.92988 11.4346L5.00801 20.0479H2.8125C2.53278 20.0479 2.26452 20.159 2.06672 20.3568C1.86893 20.5546 1.75781 20.8228 1.75781 21.1025C1.75781 21.3823 1.86893 21.6505 2.06672 21.8483C2.26452 22.0461 2.53278 22.1572 2.8125 22.1572H4.57031V36.5713C4.57031 37.224 4.82959 37.8499 5.2911 38.3114C5.75262 38.7729 6.37857 39.0322 7.03125 39.0322H11.25C11.9027 39.0322 12.5286 38.7729 12.9901 38.3114C13.4517 37.8499 13.7109 37.224 13.7109 36.5713V33.3984H31.2891V36.5625C31.2891 37.2152 31.5483 37.8411 32.0099 38.3026C32.4714 38.7642 33.0973 39.0234 33.75 39.0234H37.9688C38.6214 39.0234 39.2474 38.7642 39.7089 38.3026C40.1704 37.8411 40.4297 37.2152 40.4297 36.5625V22.1484H42.1875C42.4672 22.1484 42.7355 22.0373 42.9333 21.8395C43.1311 21.6417 43.2422 21.3735 43.2422 21.0938C43.2422 20.814 43.1311 20.5458 42.9333 20.348C42.7355 20.1502 42.4672 20.0391 42.1875 20.0391ZM11.7615 12.4805C11.7923 12.4271 11.8367 12.3827 11.89 12.3519C11.9434 12.321 12.004 12.3048 12.0656 12.3047H32.9344C32.996 12.3048 33.0566 12.321 33.11 12.3519C33.1633 12.3827 33.2077 12.4271 33.2385 12.4805L37.5574 20.0391H7.44258L11.7615 12.4805ZM11.6016 36.5625C11.6016 36.6557 11.5645 36.7452 11.4986 36.8111C11.4327 36.877 11.3432 36.9141 11.25 36.9141H7.03125C6.93801 36.9141 6.84859 36.877 6.78266 36.8111C6.71673 36.7452 6.67969 36.6557 6.67969 36.5625V33.3984H11.6016V36.5625ZM37.9688 36.9141H33.75C33.6568 36.9141 33.5673 36.877 33.5014 36.8111C33.4355 36.7452 33.3984 36.6557 33.3984 36.5625V33.3984H38.3203V36.5625C38.3203 36.6557 38.2833 36.7452 38.2173 36.8111C38.1514 36.877 38.062 36.9141 37.9688 36.9141ZM38.3203 31.2891H6.67969V22.1484H38.3203V31.2891ZM10.1953 26.7188C10.1953 26.439 10.3064 26.1708 10.5042 25.973C10.702 25.7752 10.9703 25.6641 11.25 25.6641H14.0625C14.3422 25.6641 14.6105 25.7752 14.8083 25.973C15.0061 26.1708 15.1172 26.439 15.1172 26.7188C15.1172 26.9985 15.0061 27.2667 14.8083 27.4645C14.6105 27.6623 14.3422 27.7734 14.0625 27.7734H11.25C10.9703 27.7734 10.702 27.6623 10.5042 27.4645C10.3064 27.2667 10.1953 26.9985 10.1953 26.7188ZM29.8828 26.7188C29.8828 26.439 29.9939 26.1708 30.1917 25.973C30.3895 25.7752 30.6578 25.6641 30.9375 25.6641H33.75C34.0297 25.6641 34.298 25.7752 34.4958 25.973C34.6936 26.1708 34.8047 26.439 34.8047 26.7188C34.8047 26.9985 34.6936 27.2667 34.4958 27.4645C34.298 27.6623 34.0297 27.7734 33.75 27.7734H30.9375C30.6578 27.7734 30.3895 27.6623 30.1917 27.4645C29.9939 27.2667 29.8828 26.9985 29.8828 26.7188ZM17.2266 5.625C17.2266 5.34528 17.3377 5.07702 17.5355 4.87922C17.7333 4.68143 18.0015 4.57031 18.2812 4.57031H26.7188C26.9985 4.57031 27.2667 4.68143 27.4645 4.87922C27.6623 5.07702 27.7734 5.34528 27.7734 5.625C27.7734 5.90472 27.6623 6.17298 27.4645 6.37078C27.2667 6.56857 26.9985 6.67969 26.7188 6.67969H18.2812C18.0015 6.67969 17.7333 6.56857 17.5355 6.37078C17.3377 6.17298 17.2266 5.90472 17.2266 5.625Z" fill="#30511F"/>
</svg>
