<svg width="24" height="16" viewBox="0 0 24 16" fill="none" xmlns="http://www.w3.org/2000/svg">
<path d="M7.3125 5.75C7.3125 6.03125 7.25781 6.29688 7.14844 6.54688C7.03906 6.79688 6.89062 7.01562 6.70312 7.20312C6.51562 7.39062 6.29688 7.53906 6.04688 7.64844C5.79688 7.75781 5.53125 7.8125 5.25 7.8125C4.96875 7.8125 4.70312 7.75781 4.45312 7.64844C4.20312 7.53906 3.98438 7.39062 3.79688 7.20312C3.60938 7.01562 3.46094 6.79688 3.35156 6.54688C3.24219 6.29688 3.1875 6.03125 3.1875 5.75C3.1875 5.46875 3.24219 5.20312 3.35156 4.95312C3.46094 4.70312 3.60938 4.48438 3.79688 4.29688C3.98438 4.10938 4.20312 3.96094 4.45312 3.85156C4.70312 3.74219 4.96875 3.6875 5.25 3.6875C5.53125 3.6875 5.79688 3.74219 6.04688 3.85156C6.29688 3.96094 6.51562 4.10938 6.70312 4.29688C6.89062 4.48438 7.03906 4.70312 7.14844 4.95312C7.25781 5.20312 7.3125 5.46875 7.3125 5.75ZM5.25 6.6875C5.50781 6.6875 5.72656 6.59766 5.90625 6.41797C6.08594 6.23828 6.17969 6.01562 6.1875 5.75C6.1875 5.49219 6.09766 5.27344 5.91797 5.09375C5.73828 4.91406 5.51562 4.82031 5.25 4.8125C4.99219 4.8125 4.77344 4.90234 4.59375 5.08203C4.41406 5.26172 4.32031 5.48438 4.3125 5.75C4.3125 6.00781 4.40234 6.22656 4.58203 6.40625C4.76172 6.58594 4.98438 6.67969 5.25 6.6875ZM11.25 8.1875C11.5312 8.1875 11.7969 8.24219 12.0469 8.35156C12.2969 8.46094 12.5156 8.60938 12.7031 8.79688C12.8906 8.98438 13.0391 9.20312 13.1484 9.45312C13.2578 9.70312 13.3125 9.96875 13.3125 10.25C13.3125 10.5312 13.2578 10.7969 13.1484 11.0469C13.0391 11.2969 12.8906 11.5156 12.7031 11.7031C12.5156 11.8906 12.2969 12.0391 12.0469 12.1484C11.7969 12.2578 11.5312 12.3125 11.25 12.3125C10.9688 12.3125 10.7031 12.2578 10.4531 12.1484C10.2031 12.0391 9.98438 11.8906 9.79688 11.7031C9.60938 11.5156 9.46094 11.2969 9.35156 11.0469C9.24219 10.7969 9.1875 10.5312 9.1875 10.25C9.1875 9.96875 9.24219 9.70312 9.35156 9.45312C9.46094 9.20312 9.60938 8.98438 9.79688 8.79688C9.98438 8.60938 10.2031 8.46094 10.4531 8.35156C10.7031 8.24219 10.9688 8.1875 11.25 8.1875ZM11.25 11.1875C11.5078 11.1875 11.7266 11.0977 11.9062 10.918C12.0859 10.7383 12.1797 10.5156 12.1875 10.25C12.1875 9.99219 12.0977 9.77344 11.918 9.59375C11.7383 9.41406 11.5156 9.32031 11.25 9.3125C10.9922 9.3125 10.7734 9.40234 10.5938 9.58203C10.4141 9.76172 10.3203 9.98438 10.3125 10.25C10.3125 10.5078 10.4023 10.7266 10.582 10.9062C10.7617 11.0859 10.9844 11.1797 11.25 11.1875ZM9.86719 3.5H11.1328L6.63281 12.5H5.36719L9.86719 3.5ZM16.5 0.5L24 8L16.5 15.5H0V0.5H16.5ZM15.8789 14L21.8789 8L15.8789 2H1.5V14H15.8789ZM18 7.25C18.2031 7.25 18.3789 7.32422 18.5273 7.47266C18.6758 7.62109 18.75 7.79688 18.75 8C18.75 8.20312 18.6758 8.37891 18.5273 8.52734C18.3789 8.67578 18.2031 8.75 18 8.75C17.7969 8.75 17.6211 8.67578 17.4727 8.52734C17.3242 8.37891 17.25 8.20312 17.25 8C17.25 7.79688 17.3242 7.62109 17.4727 7.47266C17.6211 7.32422 17.7969 7.25 18 7.25Z" fill="#026304"/>
</svg>
