<svg width="24" height="24" viewBox="0 0 24 24" fill="none" xmlns="http://www.w3.org/2000/svg">
<rect x="1" y="1" width="22" height="22" rx="11" stroke="#30511F" stroke-width="2"/>
<g clip-path="url(#clip0_143_3318)">
<path fill-rule="evenodd" clip-rule="evenodd" d="M16.773 8.5555C16.9136 8.69615 16.9926 8.88688 16.9926 9.08575C16.9926 9.28463 16.9136 9.47536 16.773 9.616L11.1515 15.2375C11.0772 15.3118 10.989 15.3708 10.892 15.411C10.7949 15.4512 10.6908 15.4719 10.5858 15.4719C10.4807 15.4719 10.3766 15.4512 10.2796 15.411C10.1825 15.3708 10.0943 15.3118 10.02 15.2375L7.22701 12.445C7.15538 12.3758 7.09824 12.2931 7.05894 12.2016C7.01963 12.1101 6.99894 12.0116 6.99808 11.9121C6.99721 11.8125 7.01619 11.7137 7.0539 11.6215C7.09161 11.5294 7.1473 11.4456 7.21772 11.3752C7.28814 11.3048 7.37188 11.2491 7.46405 11.2114C7.55622 11.1737 7.65498 11.1547 7.75456 11.1556C7.85415 11.1564 7.95256 11.1771 8.04407 11.2164C8.13557 11.2557 8.21833 11.3129 8.28751 11.3845L10.5855 13.6825L15.712 8.5555C15.7817 8.48581 15.8644 8.43052 15.9554 8.3928C16.0464 8.35508 16.144 8.33566 16.2425 8.33566C16.341 8.33566 16.4386 8.35508 16.5296 8.3928C16.6207 8.43052 16.7034 8.48581 16.773 8.5555Z" fill="#30511F"/>
</g>
<defs>
<clipPath id="clip0_143_3318">
<rect width="12" height="12" fill="white" transform="translate(6 6)"/>
</clipPath>
</defs>
</svg>
