<svg width="57" height="57" viewBox="0 0 57 57" fill="none" xmlns="http://www.w3.org/2000/svg">
<path d="M53.2307 44.7806L35.6248 15.4434V3.5625H37.4061C38.3858 3.5625 39.1873 2.76094 39.1873 1.78125C39.1873 0.801562 38.3858 0 37.4061 0H19.5936C18.6139 0 17.8123 0.801562 17.8123 1.78125C17.8123 2.76094 18.6139 3.5625 19.5936 3.5625H21.3748V15.4434L3.76894 44.7806C-0.263811 51.4995 2.84981 57 10.6873 57H46.3123C54.1498 57 57.2634 51.5031 53.2307 44.7806ZM13.4162 35.625L24.9373 16.4231V3.5625H32.0623V16.4231L43.5834 35.625H13.4162Z" fill="#30511F"/>
</svg>
