<svg width="48" height="39" viewBox="0 0 48 39" fill="none" xmlns="http://www.w3.org/2000/svg">
<path d="M40.8 18.5274V18.7739L46.0275 13.5668C47.67 11.9307 47.67 9.28612 46.0275 7.65004L40.17 1.82289C38.5275 0.186804 35.8725 0.186804 34.23 1.82289L31.2225 4.81864C31.02 4.79623 30.81 4.78129 30.6 4.78129H22.2C19.4175 4.78129 17.13 6.87308 16.83 9.56254H16.8V18.5274C16.8 20.1784 18.1425 21.5157 19.8 21.5157C21.4575 21.5157 22.8 20.1784 22.8 18.5274V11.9532H34.8C38.115 11.9532 40.8 14.6277 40.8 17.9297V18.5274ZM25.2 14.3438V18.5274C25.2 21.5007 22.785 23.9063 19.8 23.9063C16.815 23.9063 14.4 21.5007 14.4 18.5274V9.66713C11.7075 10.1303 9.46498 12.0802 8.69998 14.7621L7.46248 19.0653L1.97248 24.5338C0.329976 26.1699 0.329976 28.8145 1.97248 30.4506L7.82998 36.2852C9.47248 37.9213 12.1275 37.9213 13.77 36.2852L16.5975 33.4688C16.665 33.4688 16.7325 33.4763 16.8 33.4763H28.8C30.7875 33.4763 32.4 31.8701 32.4 29.8903C32.4 29.472 32.325 29.0685 32.1975 28.695H32.4C34.3875 28.695 36 27.0888 36 25.1091C36 24.1528 35.625 23.2862 35.01 22.6437C36.9375 22.2702 38.3925 20.5818 38.4 18.5498V18.5199C38.3925 16.2189 36.5175 14.3513 34.2 14.3513H25.2V14.3438Z" fill="#30511F"/>
</svg>
