<svg width="48" height="48" viewBox="0 0 48 48" fill="none" xmlns="http://www.w3.org/2000/svg">
<circle cx="24" cy="24" r="24" fill="url(#paint0_radial_91_2481)"/>
<g clip-path="url(#clip0_91_2481)">
<path d="M24 14C21.2863 14 20.945 14.0125 19.8787 14.06C18.8125 14.11 18.0862 14.2775 17.45 14.525C16.7826 14.776 16.1781 15.1698 15.6788 15.6788C15.1701 16.1784 14.7764 16.7828 14.525 17.45C14.2775 18.085 14.1088 18.8125 14.06 19.875C14.0125 20.9437 14 21.2838 14 24.0013C14 26.7163 14.0125 27.0563 14.06 28.1225C14.11 29.1875 14.2775 29.9137 14.525 30.55C14.7812 31.2075 15.1225 31.765 15.6788 32.3212C16.2338 32.8775 16.7912 33.22 17.4488 33.475C18.0863 33.7225 18.8113 33.8912 19.8763 33.94C20.9438 33.9875 21.2838 34 24 34C26.7163 34 27.055 33.9875 28.1225 33.94C29.1863 33.89 29.915 33.7225 30.5513 33.475C31.2182 33.2239 31.8223 32.8301 32.3212 32.3212C32.8775 31.765 33.2188 31.2075 33.475 30.55C33.7213 29.9137 33.89 29.1875 33.94 28.1225C33.9875 27.0563 34 26.7163 34 24C34 21.2838 33.9875 20.9438 33.94 19.8763C33.89 18.8125 33.7213 18.085 33.475 17.45C33.2237 16.7828 32.8299 16.1783 32.3212 15.6788C31.822 15.1696 31.2175 14.7758 30.55 14.525C29.9125 14.2775 29.185 14.1088 28.1213 14.06C27.0538 14.0125 26.715 14 23.9975 14H24.0013H24ZM23.1038 15.8025H24.0013C26.6713 15.8025 26.9875 15.8113 28.0413 15.86C29.0162 15.9038 29.5462 16.0675 29.8988 16.2038C30.365 16.385 30.6987 16.6025 31.0487 16.9525C31.3988 17.3025 31.615 17.635 31.7963 18.1025C31.9338 18.4538 32.0963 18.9838 32.14 19.9588C32.1887 21.0125 32.1987 21.3288 32.1987 23.9975C32.1987 26.6663 32.1887 26.9837 32.14 28.0375C32.0963 29.0125 31.9325 29.5413 31.7963 29.8938C31.6359 30.3279 31.38 30.7205 31.0475 31.0425C30.6975 31.3925 30.365 31.6088 29.8975 31.79C29.5475 31.9275 29.0175 32.09 28.0413 32.135C26.9875 32.1825 26.6713 32.1938 24.0013 32.1938C21.3313 32.1938 21.0138 32.1825 19.96 32.135C18.985 32.09 18.4563 31.9275 18.1038 31.79C17.6694 31.6299 17.2764 31.3745 16.9537 31.0425C16.6209 30.72 16.3647 30.3271 16.2038 29.8925C16.0675 29.5412 15.9038 29.0113 15.86 28.0363C15.8125 26.9825 15.8025 26.6663 15.8025 23.995C15.8025 21.325 15.8125 21.01 15.86 19.9562C15.905 18.9812 16.0675 18.4513 16.205 18.0988C16.3863 17.6325 16.6037 17.2987 16.9537 16.9488C17.3037 16.5987 17.6363 16.3825 18.1038 16.2013C18.4563 16.0638 18.985 15.9013 19.96 15.8563C20.8825 15.8138 21.24 15.8013 23.1038 15.8V15.8025ZM29.3387 17.4625C29.1812 17.4625 29.0251 17.4935 28.8795 17.5538C28.7339 17.6142 28.6017 17.7025 28.4902 17.814C28.3788 17.9254 28.2904 18.0577 28.2301 18.2033C28.1698 18.3489 28.1388 18.5049 28.1388 18.6625C28.1388 18.8201 28.1698 18.9761 28.2301 19.1217C28.2904 19.2673 28.3788 19.3996 28.4902 19.511C28.6017 19.6225 28.7339 19.7108 28.8795 19.7712C29.0251 19.8315 29.1812 19.8625 29.3387 19.8625C29.657 19.8625 29.9622 19.7361 30.1873 19.511C30.4123 19.286 30.5387 18.9808 30.5387 18.6625C30.5387 18.3442 30.4123 18.039 30.1873 17.814C29.9622 17.5889 29.657 17.4625 29.3387 17.4625ZM24.0013 18.865C23.3201 18.8544 22.6436 18.9794 22.0112 19.2327C21.3788 19.486 20.8031 19.8626 20.3177 20.3405C19.8322 20.8185 19.4467 21.3882 19.1836 22.0166C18.9204 22.6449 18.7849 23.3194 18.7849 24.0006C18.7849 24.6819 18.9204 25.3563 19.1836 25.9847C19.4467 26.613 19.8322 27.1828 20.3177 27.6607C20.8031 28.1387 21.3788 28.5153 22.0112 28.7686C22.6436 29.0219 23.3201 29.1469 24.0013 29.1363C25.3494 29.1152 26.6353 28.5649 27.5812 27.6041C28.5272 26.6432 29.0574 25.349 29.0574 24.0006C29.0574 22.6523 28.5272 21.358 27.5812 20.3972C26.6353 19.4364 25.3494 18.886 24.0013 18.865ZM24.0013 20.6663C24.8854 20.6663 25.7334 21.0175 26.3586 21.6427C26.9838 22.2679 27.335 23.1158 27.335 24C27.335 24.8842 26.9838 25.7321 26.3586 26.3573C25.7334 26.9825 24.8854 27.3337 24.0013 27.3337C23.1171 27.3337 22.2691 26.9825 21.6439 26.3573C21.0187 25.7321 20.6675 24.8842 20.6675 24C20.6675 23.1158 21.0187 22.2679 21.6439 21.6427C22.2691 21.0175 23.1171 20.6663 24.0013 20.6663Z" fill="#FAFAFA"/>
</g>
<defs>
<radialGradient id="paint0_radial_91_2481" cx="0" cy="0" r="1" gradientUnits="userSpaceOnUse" gradientTransform="translate(12.75 51.6969) rotate(-90) scale(47.5716 44.2453)">
<stop stop-color="#FFDD55"/>
<stop offset="0.1" stop-color="#FFDD55"/>
<stop offset="0.5" stop-color="#FF543E"/>
<stop offset="1" stop-color="#C837AB"/>
</radialGradient>
<clipPath id="clip0_91_2481">
<rect width="20" height="20" fill="white" transform="translate(14 14)"/>
</clipPath>
</defs>
</svg>
