<svg width="96" height="96" viewBox="0 0 96 96" fill="none" xmlns="http://www.w3.org/2000/svg">
<path d="M90.8889 46.3689C90.6048 45.8682 90.2236 45.4292 89.7677 45.0776C89.3118 44.726 88.7904 44.4689 88.2339 44.3214C85.0148 43.5039 81.6718 43.2915 78.3751 43.6952C80.4301 35.6477 79.2676 29.3102 78.0939 25.6952C77.7493 24.6145 77.0143 23.7011 76.0325 23.1332C75.0506 22.5653 73.8924 22.3838 72.7839 22.6239C68.5825 23.5703 64.6237 25.3798 61.1589 27.9377C58.8712 22.6241 55.2711 17.9788 50.6964 14.4377C49.9184 13.8446 48.9671 13.5234 47.9889 13.5234C47.0106 13.5234 46.0594 13.8446 45.2814 14.4377C40.7066 17.9788 37.1065 22.6241 34.8189 27.9377C31.3537 25.3805 27.395 23.571 23.1939 22.6239C22.0853 22.3838 20.9271 22.5653 19.9453 23.1332C18.9634 23.7011 18.2285 24.6145 17.8839 25.6952C16.7101 29.3252 15.5476 35.6627 17.6026 43.6952C14.3096 43.2929 10.9706 43.5053 7.75512 44.3214C7.19863 44.4689 6.67717 44.726 6.22127 45.0776C5.76538 45.4292 5.38422 45.8682 5.10012 46.3689C4.79888 46.8863 4.60392 47.4586 4.52665 48.0523C4.44938 48.646 4.49136 49.2491 4.65012 49.8264C5.86512 54.3264 9.60012 62.8802 20.9701 69.6714C32.3401 76.4627 42.5439 76.5002 48.0001 76.5002C53.4564 76.5002 63.6039 76.5002 75.0264 69.6714C86.4489 62.8427 90.1314 54.3227 91.3464 49.8264C91.504 49.2487 91.5448 48.6453 91.4662 48.0515C91.3876 47.4578 91.1914 46.8858 90.8889 46.3689ZM73.4251 25.5414C73.8099 25.4617 74.2105 25.5287 74.5484 25.7292C74.8862 25.9297 75.137 26.2493 75.2514 26.6252C76.7514 31.3127 78.2514 41.0064 71.2126 53.2502C67.2939 60.0714 61.7964 65.3252 56.9214 68.7902C60.7501 63.7502 64.5001 55.9652 64.5001 44.6964C64.5398 39.9811 63.7946 35.2921 62.2951 30.8214C65.5712 28.2635 69.3717 26.4606 73.4251 25.5414ZM20.7489 26.6252C20.8662 26.2523 21.1184 25.9365 21.4561 25.7396C21.7938 25.5427 22.1928 25.4787 22.5751 25.5602C26.627 26.4738 30.4274 28.2702 33.7051 30.8214C32.2056 35.2921 31.4604 39.9811 31.5001 44.6964C31.5001 55.9652 35.2501 63.7539 39.0789 68.7827C34.2039 65.3177 28.7064 60.0639 24.7876 53.2427C17.7451 40.9877 19.2339 31.2939 20.7489 26.6252ZM22.5189 67.1252C12.0564 60.8739 8.64387 53.1302 7.55637 49.0689C7.50104 48.8731 7.48613 48.668 7.51256 48.4662C7.53899 48.2645 7.60621 48.0702 7.71012 47.8952C7.79761 47.7369 7.91608 47.5979 8.05847 47.4865C8.20086 47.375 8.36424 47.2934 8.53887 47.2464C11.8174 46.4237 15.2318 46.2959 18.5626 46.8714C19.5212 49.6039 20.734 52.2405 22.1851 54.7464C27.1651 63.4089 34.4326 69.6227 40.2864 73.1627C33.994 72.4548 27.9312 70.3856 22.5189 67.0989V67.1252ZM48.0189 73.2527C45.5747 71.5511 43.4133 69.4758 41.6139 67.1027C36.8889 60.9677 34.5001 53.4377 34.5001 44.6964C34.5001 28.1027 43.3089 19.6652 47.0964 16.8114C47.3567 16.6149 47.674 16.5086 48.0001 16.5086C48.3263 16.5086 48.6436 16.6149 48.9039 16.8114C52.6914 19.6652 61.5001 28.1027 61.5001 44.6964C61.5001 53.4377 59.1114 60.9677 54.4051 67.0764C52.6057 69.4495 50.4443 71.5248 48.0001 73.2264L48.0189 73.2527ZM88.4626 49.0689C87.3676 53.1302 83.9626 60.8739 73.5001 67.1252C68.0872 70.4092 62.0244 72.4758 55.7326 73.1814C61.5864 69.6414 68.8576 63.4314 73.8339 54.7652C75.285 52.2592 76.4978 49.6227 77.4564 46.8902C80.7871 46.3128 84.2019 46.4406 87.4801 47.2652C87.6547 47.3121 87.8181 47.3937 87.9605 47.5052C88.1029 47.6167 88.2214 47.7557 88.3089 47.9139C88.5002 48.2579 88.5487 48.6633 88.4439 49.0427L88.4626 49.0689Z" fill="#30511F"/>
</svg>
