<svg width="124" height="39" viewBox="0 0 124 39" fill="none" xmlns="http://www.w3.org/2000/svg">
<path d="M8.784 3.488C5.688 3.488 4.512 5.576 4.512 7.688C4.512 9.848 5.688 11.936 8.784 11.936C11.904 11.936 13.08 9.848 13.08 7.688C13.08 5.576 11.904 3.488 8.784 3.488ZM1.344 18.848V1.28H4.656V3.104H4.704C5.688 1.568 7.584 0.943999 9.576 0.943999C14.424 0.943999 16.536 4.472 16.536 7.688C16.536 10.952 14.424 14.48 9.576 14.48C6.936 14.48 4.944 13.016 4.704 12.248H4.656V18.848H1.344ZM18.6643 9.776V1.28H21.9763V8.528C21.9763 10.472 22.4323 11.936 25.2643 11.936C26.7283 11.936 29.1283 10.976 29.1283 8.264V1.28H32.4403V14H29.1283V12.224H29.0803C28.0003 13.592 26.3203 14.48 24.0643 14.48C21.3283 14.48 18.6643 13.496 18.6643 9.776ZM35.1174 14V1.28H38.4294V3.752H38.4774C39.3654 2.312 40.7334 0.943999 43.2774 0.943999C43.7814 0.943999 44.1654 0.991999 44.5974 1.064V4.328C43.6854 4.04 43.0614 4.016 42.4854 4.016C40.8054 4.016 38.4294 4.904 38.4294 7.856V14H35.1174ZM61.2748 8.48H49.2748C49.3468 9.896 50.3068 12.08 53.5948 12.08C55.7788 12.08 56.7388 11.312 57.3868 10.256H60.9868C60.2668 11.672 58.5388 14.48 53.6908 14.48C47.9548 14.48 45.8188 11.144 45.8188 7.76C45.8188 3.512 48.9628 0.8 53.4748 0.8C59.1148 0.8 61.2748 4.28 61.2748 8V8.48ZM49.2748 6.368H57.8188C57.4108 3.824 55.1548 3.056 53.5228 3.056C51.9868 3.056 49.8268 3.776 49.2748 6.368ZM15.648 29.744H12.192C11.952 28.424 10.56 27.344 8.664 27.344C5.592 27.344 4.248 29.432 4.248 31.64C4.248 33.848 5.448 35.936 8.304 35.936C10.872 35.936 11.568 34.928 12.264 33.128H15.72C14.952 38.408 9.552 38.48 8.664 38.48C2.976 38.48 0.792 35.144 0.792 31.64C0.792 27.536 3.744 24.8 8.664 24.8C10.584 24.8 14.952 25.448 15.648 29.744ZM31.4297 29.072V35.096C31.4297 35.792 31.9337 35.816 32.1497 35.816C32.4617 35.816 32.9657 35.792 33.2297 35.744V38.072C32.5817 38.192 32.0057 38.36 30.8777 38.36C28.7177 38.36 28.4777 37.208 28.3817 36.728C27.7337 37.352 26.1257 38.48 22.4057 38.48C19.0937 38.48 17.2217 36.992 17.2217 34.496C17.2217 30.992 20.8217 30.68 22.9337 30.488C27.6857 30.032 28.1897 29.864 28.1897 28.88C28.1897 27.416 26.5097 27.056 24.5897 27.056C22.4057 27.056 21.2297 27.752 21.1097 29.168H17.8697C18.3497 25.832 20.8217 24.8 24.5897 24.8C31.2377 24.8 31.4297 27.416 31.4297 29.072ZM28.1177 32.888V31.664C27.1577 32.072 26.1257 32.192 23.7737 32.456C21.2777 32.744 20.6777 33.296 20.6777 34.376C20.6777 36.056 22.2137 36.368 23.3417 36.368C25.1177 36.368 28.1177 35.696 28.1177 32.888ZM34.7681 38V20.576H38.0801V38H34.7681ZM50.7476 38V30.416C50.7476 29.096 50.5796 27.488 47.6276 27.488C46.4756 27.488 44.1716 28.136 44.1716 30.92V38H40.8596V25.28H44.1716V27.2H44.2196C45.2996 25.832 46.9796 24.944 49.2356 24.944C50.7236 24.944 52.8356 25.208 53.7236 27.296C54.5396 26.12 56.2196 24.944 58.8836 24.944C60.9236 24.944 63.9476 25.664 63.9476 29.552V38H60.6356V30.416C60.6356 29.096 60.4676 27.488 57.5156 27.488C56.3636 27.488 54.0596 28.136 54.0596 30.92V38H50.7476ZM75.1744 38V20.576H78.4864V38H75.1744ZM96.3139 32.48H84.3139C84.3859 33.896 85.3459 36.08 88.6339 36.08C90.8179 36.08 91.7779 35.312 92.4259 34.256H96.0259C95.3059 35.672 93.5779 38.48 88.7299 38.48C82.9939 38.48 80.8579 35.144 80.8579 31.76C80.8579 27.512 84.0019 24.8 88.5139 24.8C94.1539 24.8 96.3139 28.28 96.3139 32V32.48ZM84.3139 30.368H92.8579C92.4499 27.824 90.1939 27.056 88.5619 27.056C87.0259 27.056 84.8659 27.776 84.3139 30.368ZM112.242 29.072V35.096C112.242 35.792 112.746 35.816 112.962 35.816C113.274 35.816 113.778 35.792 114.042 35.744V38.072C113.394 38.192 112.818 38.36 111.69 38.36C109.53 38.36 109.29 37.208 109.194 36.728C108.546 37.352 106.938 38.48 103.218 38.48C99.9062 38.48 98.0342 36.992 98.0342 34.496C98.0342 30.992 101.634 30.68 103.746 30.488C108.498 30.032 109.002 29.864 109.002 28.88C109.002 27.416 107.322 27.056 105.402 27.056C103.218 27.056 102.042 27.752 101.922 29.168H98.6822C99.1622 25.832 101.634 24.8 105.402 24.8C112.05 24.8 112.242 27.416 112.242 29.072ZM108.93 32.888V31.664C107.97 32.072 106.938 32.192 104.586 32.456C102.09 32.744 101.49 33.296 101.49 34.376C101.49 36.056 103.026 36.368 104.154 36.368C105.93 36.368 108.93 35.696 108.93 32.888ZM116.493 38V27.68H113.877V25.28H116.493V23.648C116.493 22.232 116.853 20.384 120.309 20.384C121.749 20.384 122.517 20.432 123.285 20.48V22.88C122.925 22.832 122.205 22.784 121.581 22.784C120.069 22.784 119.805 23.144 119.805 24.296V25.28H123.285V27.68H119.805V38H116.493Z" fill="#497931"/>
</svg>
