<svg width="15" height="15" viewBox="0 0 15 15" fill="none" xmlns="http://www.w3.org/2000/svg">
<path d="M8.57133 9.57624L14.0844 14.6456C14.185 14.7381 14.3214 14.79 14.4637 14.79C14.6059 14.79 14.7423 14.7381 14.8429 14.6456C14.9435 14.5531 15 14.4277 15 14.2969C15 14.1662 14.9435 14.0407 14.8429 13.9483L0.915594 1.14442C0.86579 1.09863 0.806664 1.06231 0.741592 1.03753C0.67652 1.01275 0.606776 1 0.536343 1C0.465909 1 0.396165 1.01275 0.331093 1.03753C0.266021 1.06231 0.206895 1.09863 0.157091 1.14442C0.107287 1.19021 0.0677804 1.24456 0.0408266 1.30439C0.0138729 1.36421 -5.2477e-10 1.42833 0 1.49308C5.24771e-10 1.55783 0.0138729 1.62195 0.0408266 1.68177C0.0677804 1.74159 0.107287 1.79595 0.157091 1.84174L3.52107 4.93337H2.67901C2.2528 4.93337 1.84406 5.08902 1.54269 5.36608C1.24132 5.64314 1.07201 6.01892 1.07201 6.41074V9.35464C1.07201 9.74646 1.24132 10.1222 1.54269 10.3993C1.84406 10.6764 2.2528 10.832 2.67901 10.832H4.52491L7.65963 13.6636C7.73491 13.7318 7.83045 13.7781 7.93424 13.7965C8.03803 13.8149 8.14542 13.8046 8.24289 13.767C8.34036 13.7294 8.42355 13.6662 8.482 13.5852C8.54044 13.5042 8.57152 13.4092 8.57133 13.312V9.57624ZM11.4736 9.45805L10.6219 8.67603C10.6808 8.44754 10.7183 8.18653 10.7183 7.89402C10.7183 7.1573 10.4837 6.62939 10.2598 6.29058C10.1493 6.12336 10.0165 5.96951 9.86443 5.8326C9.8581 5.82725 9.85167 5.82199 9.84515 5.81684C9.74112 5.73346 9.67718 5.61638 9.66475 5.49001C9.65232 5.36365 9.69342 5.23775 9.77948 5.13856C9.86555 5.03937 9.98994 4.97455 10.1267 4.95761C10.2635 4.94066 10.4021 4.97291 10.5137 5.04762H10.5147L10.5158 5.04861L10.5179 5.05058L10.5244 5.05452L10.5404 5.06732C10.6109 5.12379 10.6782 5.18363 10.7419 5.24657C10.8629 5.36772 11.0204 5.54402 11.1747 5.77843C11.4875 6.25118 11.7896 6.95343 11.7896 7.89402C11.7941 8.42947 11.6868 8.96075 11.4736 9.45904V9.45805ZM13.0988 10.9531L12.3006 10.2194C12.6715 9.49346 12.8625 8.70093 12.8599 7.89894C12.8625 6.82424 12.52 5.77273 11.8753 4.87625C11.6769 4.59707 11.451 4.33529 11.2004 4.09423C11.1139 4.01181 11.0234 3.93294 10.9293 3.85785L10.9175 3.848C10.8094 3.76574 10.7407 3.64776 10.7263 3.51943C10.7118 3.3911 10.7527 3.26267 10.8401 3.16176C10.9276 3.06085 11.0546 2.99552 11.1939 2.97982C11.3332 2.96412 11.4736 2.9993 11.585 3.0778L11.5861 3.07878L11.5893 3.08075L11.5968 3.08666L11.6203 3.10538C11.7425 3.20253 11.8597 3.30474 11.9717 3.41168C12.1914 3.62147 12.4817 3.93073 12.771 4.33553C13.5303 5.39265 13.9339 6.63211 13.9312 7.89894C13.9343 8.96449 13.6482 10.0149 13.0988 10.9531ZM8.57026 6.78993L5.55125 4.01445L7.66177 2.12539C7.73727 2.05812 7.83263 2.01275 7.93597 1.99496C8.03932 1.97716 8.14607 1.98772 8.24293 2.02531C8.3398 2.0629 8.42248 2.12587 8.48069 2.20637C8.5389 2.28687 8.57005 2.38133 8.57026 2.47799V6.78993Z" fill="#FAFAFA"/>
</svg>
