<svg width="12" height="8" viewBox="0 0 12 8" fill="none" xmlns="http://www.w3.org/2000/svg">
<path fill-rule="evenodd" clip-rule="evenodd" d="M6.58929 7.08917C6.43302 7.24539 6.22109 7.33316 6.00012 7.33316C5.77915 7.33316 5.56723 7.24539 5.41096 7.08917L0.69679 2.375C0.617198 2.29813 0.553713 2.20617 0.510039 2.1045C0.466364 2.00283 0.443376 1.89348 0.442414 1.78284C0.441453 1.67219 0.462538 1.56245 0.504438 1.46004C0.546339 1.35763 0.608217 1.26458 0.686461 1.18634C0.764705 1.10809 0.857748 1.04622 0.960161 1.00432C1.06257 0.962415 1.17231 0.941331 1.28296 0.942292C1.39361 0.943254 1.50296 0.966242 1.60463 1.00992C1.7063 1.05359 1.79825 1.11708 1.87512 1.19667L6.00012 5.32167L10.1251 1.19667C10.2823 1.04487 10.4928 0.960874 10.7113 0.962772C10.9298 0.964671 11.1388 1.05231 11.2933 1.20682C11.4478 1.36133 11.5355 1.57034 11.5374 1.78883C11.5393 2.00733 11.4553 2.21783 11.3035 2.375L6.58929 7.08917Z" fill="#024019"/>
</svg>
