<svg width="48" height="48" viewBox="0 0 48 48" fill="none" xmlns="http://www.w3.org/2000/svg">
<circle cx="24" cy="24" r="24" fill="#CB1F27"/>
<path d="M24.4249 15.25C20.8249 15.25 17.2749 17.65 17.2749 21.525C17.2749 23.9875 18.6624 25.4 19.4999 25.4C19.8499 25.4 20.0499 24.4375 20.0499 24.1625C20.0499 23.8375 19.2249 23.1375 19.2249 21.7875C19.2249 18.9625 21.3749 16.975 24.1499 16.975C26.5374 16.975 28.2999 18.3375 28.2999 20.825C28.2999 22.6875 27.5499 26.175 25.1374 26.175C24.2624 26.175 23.5124 25.55 23.5124 24.6375C23.5124 23.3125 24.4374 22.025 24.4374 20.6625C24.4374 18.3375 21.1499 18.7625 21.1499 21.5625C21.1499 22.15 21.2249 22.8 21.4874 23.3375C20.9999 25.425 20.0124 28.525 20.0124 30.675C20.0124 31.3375 20.1124 31.9875 20.1749 32.65C20.2999 32.7875 20.2374 32.775 20.4124 32.7C22.1749 30.275 22.1124 29.8125 22.9124 26.6375C23.3499 27.4625 24.4624 27.9 25.3374 27.9C29.0624 27.9 30.7374 24.275 30.7374 21C30.7374 17.5125 27.7249 15.25 24.4249 15.25Z" fill="#FAFAFA"/>
</svg>
