<svg width="100" height="20" viewBox="0 0 100 20" fill="none" xmlns="http://www.w3.org/2000/svg">
<path d="M75.3906 18.75C75.259 18.7505 75.1307 18.7095 75.0238 18.6328L69.9999 14.9906L64.9761 18.6328C64.8688 18.7106 64.7395 18.7523 64.6069 18.7519C64.4743 18.7514 64.3453 18.7087 64.2385 18.6301C64.1318 18.5515 64.0528 18.441 64.013 18.3145C63.9732 18.188 63.9746 18.0521 64.0171 17.9265L65.9765 12.123L60.8984 8.64061C60.7884 8.56526 60.7054 8.45672 60.6615 8.33083C60.6175 8.20494 60.615 8.06831 60.6543 7.94089C60.6936 7.81348 60.7726 7.70196 60.8797 7.62264C60.9869 7.54331 61.1166 7.50034 61.2499 7.49999H67.5148L69.4054 1.68163C69.4461 1.55601 69.5256 1.44652 69.6324 1.36887C69.7392 1.29122 69.8679 1.24939 69.9999 1.24939C70.132 1.24939 70.2607 1.29122 70.3675 1.36887C70.4743 1.44652 70.5537 1.55601 70.5945 1.68163L72.4851 7.50194H78.7499C78.8834 7.50187 79.0134 7.54455 79.1209 7.62372C79.2284 7.7029 79.3077 7.8144 79.3472 7.94191C79.3868 8.06943 79.3844 8.20624 79.3405 8.33232C79.2967 8.4584 79.2136 8.56712 79.1035 8.64256L74.0234 12.123L75.9816 17.925C76.0133 18.0189 76.0222 18.1191 76.0076 18.2171C75.993 18.3152 75.9553 18.4084 75.8975 18.489C75.8398 18.5696 75.7637 18.6353 75.6755 18.6807C75.5874 18.726 75.4897 18.7498 75.3906 18.75Z" fill="#30511F"/>
<path d="M95.3906 18.75C95.259 18.7505 95.1307 18.7095 95.0238 18.6328L89.9999 14.9906L84.9761 18.6328C84.8688 18.7106 84.7395 18.7523 84.6069 18.7519C84.4743 18.7514 84.3453 18.7087 84.2385 18.6301C84.1318 18.5515 84.0528 18.441 84.013 18.3145C83.9732 18.188 83.9746 18.0521 84.0171 17.9265L85.9765 12.123L80.8984 8.64061C80.7884 8.56526 80.7054 8.45672 80.6615 8.33083C80.6175 8.20494 80.615 8.06831 80.6543 7.94089C80.6936 7.81348 80.7726 7.70196 80.8797 7.62264C80.9869 7.54331 81.1166 7.50034 81.2499 7.49999H87.5148L89.4054 1.68163C89.4461 1.55601 89.5256 1.44652 89.6324 1.36887C89.7392 1.29122 89.8679 1.24939 89.9999 1.24939C90.132 1.24939 90.2607 1.29122 90.3675 1.36887C90.4743 1.44652 90.5537 1.55601 90.5945 1.68163L92.4851 7.50194H98.7499C98.8834 7.50187 99.0134 7.54455 99.1209 7.62372C99.2284 7.7029 99.3077 7.8144 99.3472 7.94191C99.3868 8.06943 99.3844 8.20624 99.3405 8.33232C99.2967 8.4584 99.2136 8.56712 99.1035 8.64256L94.0234 12.123L95.9816 17.925C96.0133 18.0189 96.0222 18.1191 96.0076 18.2171C95.993 18.3152 95.9553 18.4084 95.8975 18.489C95.8398 18.5696 95.7637 18.6353 95.6755 18.6807C95.5874 18.726 95.4897 18.7498 95.3906 18.75Z" fill="#30511F"/>
<path d="M55.3906 18.75C55.259 18.7505 55.1307 18.7095 55.0238 18.6328L49.9999 14.9906L44.9761 18.6328C44.8688 18.7106 44.7395 18.7523 44.6069 18.7519C44.4743 18.7514 44.3453 18.7087 44.2385 18.6301C44.1318 18.5515 44.0528 18.441 44.013 18.3145C43.9732 18.188 43.9746 18.0521 44.0171 17.9265L45.9765 12.123L40.8984 8.64061C40.7884 8.56526 40.7054 8.45672 40.6615 8.33083C40.6175 8.20494 40.615 8.06831 40.6543 7.94089C40.6936 7.81348 40.7726 7.70196 40.8797 7.62264C40.9869 7.54331 41.1166 7.50034 41.2499 7.49999H47.5148L49.4054 1.68163C49.4461 1.55601 49.5256 1.44652 49.6324 1.36887C49.7392 1.29122 49.8679 1.24939 49.9999 1.24939C50.132 1.24939 50.2607 1.29122 50.3675 1.36887C50.4743 1.44652 50.5537 1.55601 50.5945 1.68163L52.4851 7.50194H58.7499C58.8834 7.50187 59.0134 7.54455 59.1209 7.62372C59.2284 7.7029 59.3077 7.8144 59.3472 7.94191C59.3868 8.06943 59.3844 8.20624 59.3405 8.33232C59.2967 8.4584 59.2136 8.56712 59.1035 8.64256L54.0234 12.123L55.9816 17.925C56.0133 18.0189 56.0222 18.1191 56.0076 18.2171C55.993 18.3152 55.9553 18.4084 55.8975 18.489C55.8398 18.5696 55.7637 18.6353 55.6755 18.6807C55.5874 18.726 55.4897 18.7498 55.3906 18.75Z" fill="#30511F"/>
<path d="M35.3906 18.75C35.259 18.7505 35.1307 18.7095 35.0238 18.6328L29.9999 14.9906L24.9761 18.6328C24.8688 18.7106 24.7395 18.7523 24.6069 18.7519C24.4743 18.7514 24.3453 18.7087 24.2385 18.6301C24.1318 18.5515 24.0528 18.441 24.013 18.3145C23.9732 18.188 23.9746 18.0521 24.0171 17.9265L25.9765 12.123L20.8984 8.64061C20.7884 8.56526 20.7054 8.45672 20.6615 8.33083C20.6175 8.20494 20.615 8.06831 20.6543 7.94089C20.6936 7.81348 20.7726 7.70196 20.8797 7.62264C20.9869 7.54331 21.1166 7.50034 21.2499 7.49999H27.5148L29.4054 1.68163C29.4461 1.55601 29.5256 1.44652 29.6324 1.36887C29.7392 1.29122 29.8679 1.24939 29.9999 1.24939C30.132 1.24939 30.2607 1.29122 30.3675 1.36887C30.4743 1.44652 30.5537 1.55601 30.5945 1.68163L32.4851 7.50194H38.7499C38.8834 7.50187 39.0134 7.54455 39.1209 7.62372C39.2284 7.7029 39.3077 7.8144 39.3472 7.94191C39.3868 8.06943 39.3844 8.20624 39.3405 8.33232C39.2967 8.4584 39.2136 8.56712 39.1035 8.64256L34.0234 12.123L35.9816 17.925C36.0133 18.0189 36.0222 18.1191 36.0076 18.2171C35.993 18.3152 35.9553 18.4084 35.8975 18.489C35.8398 18.5696 35.7637 18.6353 35.6755 18.6807C35.5874 18.726 35.4897 18.7498 35.3906 18.75Z" fill="#30511F"/>
<path d="M15.3906 18.75C15.259 18.7505 15.1307 18.7095 15.0238 18.6328L9.99994 14.9906L4.97612 18.6328C4.86879 18.7106 4.73948 18.7523 4.60689 18.7519C4.4743 18.7514 4.3453 18.7087 4.23854 18.6301C4.13178 18.5515 4.05278 18.441 4.01298 18.3145C3.97318 18.188 3.97464 18.0521 4.01713 17.9265L5.97651 12.123L0.898382 8.64061C0.788386 8.56526 0.705368 8.45672 0.661457 8.33083C0.617545 8.20494 0.615042 8.06831 0.654314 7.94089C0.693585 7.81348 0.772572 7.70196 0.879734 7.62264C0.986896 7.54331 1.11662 7.50034 1.24994 7.49999H7.51479L9.40541 1.68163C9.44614 1.55601 9.52561 1.44652 9.63242 1.36887C9.73923 1.29122 9.86789 1.24939 9.99994 1.24939C10.132 1.24939 10.2607 1.29122 10.3675 1.36887C10.4743 1.44652 10.5537 1.55601 10.5945 1.68163L12.4851 7.50194H18.7499C18.8834 7.50187 19.0134 7.54455 19.1209 7.62372C19.2284 7.7029 19.3077 7.8144 19.3472 7.94191C19.3868 8.06943 19.3844 8.20624 19.3405 8.33232C19.2967 8.4584 19.2136 8.56712 19.1035 8.64256L14.0234 12.123L15.9816 17.925C16.0133 18.0189 16.0222 18.1191 16.0076 18.2171C15.993 18.3152 15.9553 18.4084 15.8975 18.489C15.8398 18.5696 15.7637 18.6353 15.6755 18.6807C15.5874 18.726 15.4897 18.7498 15.3906 18.75Z" fill="#30511F"/>
</svg>
