<svg width="96" height="96" viewBox="0 0 96 96" fill="none" xmlns="http://www.w3.org/2000/svg">
<path d="M6 84H30V90H6V84ZM51 87C50.5506 86.9997 50.107 86.8985 49.702 86.7038C49.297 86.509 48.9409 86.2258 48.66 85.875L37.56 72H6V66H39C39.4494 66.0003 39.893 66.1015 40.298 66.2962C40.703 66.491 41.0591 66.7742 41.34 67.125L50.781 78.921L66.504 55.335C66.7702 54.9359 67.1283 54.6064 67.5482 54.3743C67.968 54.1421 68.4375 54.014 68.9171 54.0008C69.3967 53.9876 69.8724 54.0896 70.3045 54.2982C70.7365 54.5069 71.1122 54.8161 71.4 55.2L79.5 66H90V72H78C77.5343 72 77.0749 71.8916 76.6584 71.6833C76.2418 71.475 75.8794 71.1726 75.6 70.8L69.144 62.19L53.496 85.665C53.2342 86.0577 52.8834 86.3831 52.4721 86.6145C52.0607 86.846 51.6006 86.977 51.129 86.997L51 87ZM33 48V33H36C39.1814 32.996 42.2313 31.7305 44.4809 29.4809C46.7305 27.2313 47.996 24.1814 48 21V12H39C35.9279 12.005 32.9762 13.1946 30.759 15.321C29.2055 12.5003 26.9241 10.1478 24.1524 8.50839C21.3807 6.86902 18.2202 6.00282 15 6H6V15C6.00556 19.7722 7.90377 24.3473 11.2782 27.7218C14.6527 31.0962 19.2278 32.9944 24 33H27V48H6V54H48V48H33ZM39 18H42V21C41.9984 22.5908 41.3658 24.116 40.2409 25.2409C39.116 26.3658 37.5908 26.9984 36 27H33V24C33.0016 22.4092 33.6342 20.884 34.7591 19.7591C35.884 18.6342 37.4092 18.0016 39 18ZM24 27C20.8186 26.996 17.7687 25.7305 15.5191 23.4809C13.2695 21.2313 12.004 18.1814 12 15V12H15C18.1814 12.004 21.2313 13.2695 23.4809 15.5191C25.7305 17.7687 26.996 20.8186 27 24V27H24Z" fill="#30511F"/>
</svg>
