<svg width="14" height="15" viewBox="0 0 14 15" fill="none" xmlns="http://www.w3.org/2000/svg">
<path fill-rule="evenodd" clip-rule="evenodd" d="M6.99997 1.83333C6.60215 1.83333 6.22062 1.99136 5.93931 2.27267C5.65801 2.55397 5.49997 2.9355 5.49997 3.33333V3.50266C5.77864 3.5 6.07864 3.49999 6.40331 3.49999H7.59664C7.92131 3.49999 8.22197 3.5 8.49997 3.50266V3.33333C8.49997 2.9355 8.34194 2.55397 8.06063 2.27267C7.77933 1.99136 7.3978 1.83333 6.99997 1.83333ZM9.49997 3.538V3.33333C9.49997 2.67029 9.23658 2.0344 8.76774 1.56556C8.2989 1.09672 7.66302 0.833328 6.99997 0.833328C6.33693 0.833328 5.70105 1.09672 5.23221 1.56556C4.76337 2.0344 4.49997 2.67029 4.49997 3.33333V3.538C4.40997 3.54466 4.32331 3.552 4.23931 3.56133C3.65397 3.62466 3.16397 3.75666 2.72931 4.05466C2.57972 4.15709 2.4392 4.27218 2.30931 4.39866C1.93197 4.76666 1.70597 5.22133 1.52931 5.78266C1.35797 6.32866 1.21931 7.022 1.04464 7.89333L1.03197 7.95666C0.781308 9.212 0.583308 10.2013 0.526641 10.9893C0.467975 11.7947 0.549308 12.4713 0.930641 13.0587C1.05797 13.2547 1.20664 13.4353 1.37331 13.5987C1.87464 14.088 2.52264 14.3 3.32331 14.4013C4.10731 14.5 5.11664 14.5 6.39664 14.5H7.60331C8.88397 14.5 9.89264 14.5 10.6766 14.4013C11.4773 14.3 12.126 14.088 12.6266 13.5987C12.7937 13.4355 12.9421 13.2544 13.0693 13.0587C13.4506 12.472 13.532 11.7947 13.474 10.9893C13.4166 10.2013 13.2193 9.212 12.9673 7.95666L12.9553 7.89333C12.7813 7.022 12.642 6.32866 12.4706 5.78266C12.294 5.22133 12.068 4.76666 11.6906 4.39866C11.5608 4.27218 11.4202 4.15709 11.2706 4.05466C10.836 3.75666 10.346 3.62466 9.76064 3.56133C9.67411 3.55206 9.58743 3.54428 9.50064 3.538H9.49997ZM4.34664 4.55533C3.84864 4.60866 3.54131 4.71066 3.29464 4.87933C3.19228 4.94962 3.09615 5.02857 3.00731 5.11533C2.79331 5.324 2.63397 5.60533 2.48331 6.08266C2.32997 6.57133 2.20064 7.21133 2.01997 8.11733C1.75997 9.41599 1.57531 10.344 1.52397 11.0613C1.47264 11.7693 1.55864 12.19 1.76931 12.514C1.85597 12.6473 1.95797 12.772 2.07197 12.8833C2.34864 13.1533 2.74397 13.32 3.44864 13.4093C4.16197 13.4993 5.10864 13.5 6.43264 13.5H7.56797C8.89197 13.5 9.83731 13.4993 10.5513 13.4093C11.256 13.32 11.6513 13.1533 11.928 12.8833C12.0422 12.7717 12.1437 12.6479 12.2306 12.514C12.4413 12.19 12.5273 11.7693 12.4766 11.0607C12.4246 10.3433 12.24 9.41599 11.9806 8.11733C11.7993 7.21133 11.6706 6.57066 11.5166 6.08266C11.3666 5.60533 11.2066 5.324 10.9926 5.11533C10.904 5.02859 10.8081 4.94964 10.706 4.87933C10.4593 4.71066 10.1513 4.60933 9.65331 4.55533C9.14464 4.50066 8.49131 4.49999 7.56731 4.49999H6.43331C5.50931 4.49999 4.85598 4.50066 4.34664 4.55533Z" fill="#30511F"/>
</svg>
