<svg width="96" height="96" viewBox="0 0 96 96" fill="none" xmlns="http://www.w3.org/2000/svg">
<path d="M54 32H66L54 44H66M72 8H88L72 24H88" stroke="#30511F" stroke-width="1.5" stroke-linecap="round" stroke-linejoin="round"/>
<path d="M29.504 80.052C29.1631 79.8545 28.7867 79.7261 28.3961 79.674C28.0056 79.622 27.6086 79.6475 27.2279 79.7489C26.8472 79.8503 26.4901 80.0257 26.1772 80.265C25.8643 80.5044 25.6016 80.8031 25.404 81.144C25.2065 81.4849 25.0781 81.8614 25.0261 82.2519C24.9741 82.6425 24.9995 83.0394 25.1009 83.4202C25.2023 83.8009 25.3777 84.1579 25.6171 84.4708C25.8565 84.7838 26.1551 85.0465 26.496 85.244L29.504 80.052ZM10.756 69.5C10.9453 69.8555 11.2042 70.1692 11.5173 70.4224C11.8304 70.6757 12.1913 70.8633 12.5785 70.9741C12.9657 71.0849 13.3712 71.1166 13.7708 71.0674C14.1705 71.0182 14.5562 70.8889 14.9049 70.6875C15.2536 70.486 15.5581 70.2164 15.8004 69.8947C16.0427 69.573 16.2177 69.2058 16.315 68.8151C16.4124 68.4243 16.4301 68.018 16.367 67.6202C16.304 67.2225 16.1615 66.8415 15.948 66.5L10.756 69.5ZM85 48C85 57.813 81.1018 67.2241 74.163 74.1629C67.2241 81.1018 57.8131 85 48 85V91C71.748 91 91 71.748 91 48H85ZM11 48C11 38.187 14.8982 28.7759 21.8371 21.837C28.7759 14.8982 38.187 11 48 11V5C24.252 5 5.00005 24.252 5.00005 48H11ZM62 57C55.9001 57 50.0499 54.5768 45.7366 50.2635C41.4233 45.9501 39 40.1 39 34H33C33 41.6913 36.0554 49.0675 41.4939 54.5061C46.9325 59.9446 54.3088 63 62 63V57ZM81.7 45.876C79.6545 49.2717 76.7654 52.0805 73.3135 54.0297C69.8616 55.9789 65.9642 57.0021 62 57V63C66.9978 63.0026 71.9114 61.7131 76.2637 59.2566C80.6161 56.8 84.2594 53.26 86.84 48.98L81.7 45.876ZM39 34C38.9983 30.0359 40.0217 26.1387 41.9709 22.6868C43.92 19.235 46.7286 16.3459 50.124 14.3L47.02 9.164C42.7404 11.744 39.2005 15.3866 36.7439 19.7383C34.2874 24.0899 32.9977 29.0028 33 34H39ZM48 11C47.5944 10.9904 47.209 10.8208 46.928 10.528C46.7563 10.3609 46.6415 10.144 46.6 9.908C46.584 9.784 46.592 9.424 47.02 9.164L50.124 14.3C52.136 13.084 52.784 10.856 52.548 9.104C52.3 7.284 50.868 5 48 5V11ZM86.84 48.98C86.576 49.408 86.216 49.416 86.092 49.4C85.856 49.3585 85.6391 49.2438 85.472 49.072C85.1793 48.791 85.0096 48.4057 85 48H91C91 45.132 88.716 43.7 86.896 43.452C85.1441 43.216 82.916 43.864 81.7 45.876L86.84 48.98ZM48 85C41.5062 85.0107 35.1251 83.3037 29.504 80.052L26.496 85.244C33.0312 89.0251 40.4499 91.0109 48 91V85ZM15.948 66.5C12.6957 60.8778 10.9886 54.4952 11 48H5.00005C4.9891 55.5489 6.97491 62.9663 10.756 69.5L15.948 66.5Z" fill="#30511F"/>
</svg>
