<svg width="45" height="45" viewBox="0 0 45 45" fill="none" xmlns="http://www.w3.org/2000/svg">
<path d="M22.5 39.6429C31.9678 39.6429 39.6429 31.9678 39.6429 22.5C39.6429 13.0323 31.9678 5.35718 22.5 5.35718C13.0323 5.35718 5.35718 13.0323 5.35718 22.5C5.35718 31.9678 13.0323 39.6429 22.5 39.6429Z" stroke="#30511F" stroke-width="2" stroke-linecap="round" stroke-linejoin="round"/>
<path d="M22.5001 31.0714C27.234 31.0714 31.0716 27.2339 31.0716 22.5C31.0716 17.7661 27.234 13.9286 22.5001 13.9286C17.7663 13.9286 13.9287 17.7661 13.9287 22.5C13.9287 27.2339 17.7663 31.0714 22.5001 31.0714Z" stroke="#30511F" stroke-width="2" stroke-linecap="round" stroke-linejoin="round"/>
<path d="M28.9286 16.0715L34.2858 10.7144M28.9286 28.9286L34.2858 34.2858M16.0715 28.9286L10.7144 34.2858M16.0715 16.0715L10.7144 10.7144" stroke="#30511F" stroke-width="2" stroke-linecap="round" stroke-linejoin="round"/>
</svg>
