<svg width="48" height="48" viewBox="0 0 48 48" fill="none" xmlns="http://www.w3.org/2000/svg">
<circle cx="24" cy="24" r="24" fill="#1D9BF0"/>
<path d="M32.7165 19C32.0749 19.2917 31.3832 19.4833 30.6665 19.575C31.3999 19.1333 31.9665 18.4333 32.2332 17.5917C31.5415 18.0083 30.7749 18.3 29.9665 18.4667C29.3082 17.75 28.3832 17.3333 27.3332 17.3333C25.3749 17.3333 23.7749 18.9333 23.7749 20.9083C23.7749 21.1917 23.8082 21.4667 23.8665 21.725C20.8999 21.575 18.2582 20.15 16.4999 17.9917C16.1915 18.5167 16.0165 19.1333 16.0165 19.7833C16.0165 21.025 16.6415 22.125 17.6082 22.75C17.0165 22.75 16.4665 22.5833 15.9832 22.3333V22.3583C15.9832 24.0917 17.2165 25.5417 18.8499 25.8667C18.3255 26.0102 17.7749 26.0302 17.2415 25.925C17.4679 26.6354 17.9112 27.257 18.5091 27.7025C19.107 28.1479 19.8294 28.3948 20.5749 28.4083C19.3112 29.4087 17.7449 29.9494 16.1332 29.9417C15.8499 29.9417 15.5665 29.925 15.2832 29.8917C16.8665 30.9083 18.7499 31.5 20.7665 31.5C27.3332 31.5 30.9415 26.05 30.9415 21.325C30.9415 21.1667 30.9415 21.0167 30.9332 20.8583C31.6332 20.3583 32.2332 19.725 32.7165 19Z" fill="#FAFAFA"/>
</svg>
