<svg width="15" height="15" viewBox="0 0 15 15" fill="none" xmlns="http://www.w3.org/2000/svg">
<path d="M6.94096 0.613269C6.75577 0.613846 6.55096 0.696923 6.36404 0.883269L3.06462 4.61538H0.576923C0.259038 4.61538 0 4.87442 0 5.19231V9.80769C0 10.1256 0.259038 10.3846 0.576923 10.3846H3.06519L6.34615 14.0988C6.92308 14.6758 7.5 14.3804 7.5 13.594V1.31538C7.5 0.859038 7.25019 0.610385 6.94096 0.612115V0.613269ZM11.1237 1.76712C11.001 1.78852 10.8885 1.84906 10.803 1.93968C10.7176 2.03031 10.6638 2.14615 10.6496 2.2699C10.6355 2.39364 10.6617 2.51865 10.7245 2.62622C10.7873 2.7338 10.8832 2.81817 10.9979 2.86673C11.8562 3.29823 12.5773 3.96028 13.0804 4.77865C13.5835 5.59703 13.8486 6.53936 13.8462 7.5C13.8462 9.53308 12.6923 11.2788 10.9973 12.1333C10.9202 12.1601 10.8496 12.203 10.7903 12.2592C10.731 12.3153 10.6843 12.3834 10.6532 12.4589C10.6222 12.5345 10.6076 12.6158 10.6103 12.6974C10.613 12.779 10.633 12.8591 10.669 12.9324C10.705 13.0057 10.7562 13.0706 10.8191 13.1226C10.882 13.1747 10.9553 13.2128 11.034 13.2345C11.1128 13.2561 11.1952 13.2608 11.2759 13.2482C11.3566 13.2356 11.4337 13.206 11.5021 13.1613C13.575 12.1154 15 9.97385 15 7.5C15 5.02615 13.5744 2.88462 11.5021 1.83865C11.4034 1.78355 11.2906 1.75867 11.1779 1.76712C11.1598 1.76627 11.1417 1.76627 11.1237 1.76712ZM9.75346 4.00212C9.62924 4.01124 9.5113 4.06032 9.41729 4.14202C9.32327 4.22372 9.25822 4.33366 9.23186 4.4554C9.2055 4.57713 9.21924 4.70413 9.27104 4.81741C9.32284 4.93068 9.40991 5.02415 9.51923 5.08385C10.4094 5.63712 10.9615 6.51346 10.9615 7.5C10.9615 8.49346 10.4008 9.38135 9.50135 9.93404C9.43069 9.9709 9.36843 10.022 9.3185 10.0841C9.26858 10.1462 9.23206 10.218 9.21126 10.295C9.19046 10.3719 9.18583 10.4523 9.19765 10.5311C9.20947 10.6099 9.23749 10.6855 9.27995 10.7529C9.32241 10.8203 9.37838 10.8783 9.44434 10.923C9.51029 10.9677 9.5848 10.9983 9.66317 11.0128C9.74153 11.0273 9.82205 11.0254 9.89965 11.0073C9.97725 10.9891 10.0503 10.9551 10.114 10.9073C11.3083 10.1746 12.1154 8.92846 12.1154 7.5C12.1154 6.08019 11.3152 4.82712 10.1319 4.09269C10.0353 4.03094 9.92237 3.9994 9.80769 4.00212C9.78963 4.00127 9.77153 4.00127 9.75346 4.00212Z" fill="#FAFAFA"/>
</svg>
