<svg width="48" height="48" viewBox="0 0 48 48" fill="none" xmlns="http://www.w3.org/2000/svg">
<circle cx="24" cy="24" r="24" fill="#FF0000"/>
<g clip-path="url(#clip0_91_2487)">
<path d="M24.0638 16.4987H24.175C25.2025 16.5025 30.4088 16.54 31.8125 16.9175C32.2369 17.0327 32.6236 17.2573 32.934 17.5688C33.2443 17.8802 33.4675 18.2677 33.5813 18.6925C33.7075 19.1675 33.7963 19.7962 33.8563 20.445L33.8688 20.575L33.8963 20.9L33.9063 21.03C33.9875 22.1725 33.9975 23.2425 33.9988 23.4762V23.57C33.9975 23.8125 33.9863 24.955 33.8963 26.145L33.8863 26.2762L33.875 26.4062C33.8125 27.1212 33.72 27.8312 33.5813 28.3537C33.4679 28.7787 33.2448 29.1664 32.9344 29.4779C32.6239 29.7894 32.237 30.0139 31.8125 30.1287C30.3625 30.5187 24.8513 30.5462 24.0875 30.5475H23.91C23.5238 30.5475 21.9263 30.54 20.2513 30.4825L20.0388 30.475L19.93 30.47L19.7163 30.4612L19.5025 30.4525C18.115 30.3912 16.7938 30.2925 16.185 30.1275C15.7606 30.0127 15.3738 29.7885 15.0634 29.4772C14.753 29.1659 14.5298 28.7785 14.4163 28.3537C14.2775 27.8325 14.185 27.1212 14.1225 26.4062L14.1125 26.275L14.1025 26.145C14.0408 25.298 14.0066 24.4492 14 23.6L14 23.4462C14.0025 23.1775 14.0125 22.2487 14.08 21.2237L14.0888 21.095L14.0925 21.03L14.1025 20.9L14.13 20.575L14.1425 20.445C14.2025 19.7962 14.2913 19.1662 14.4175 18.6925C14.5309 18.2676 14.754 17.8799 15.0644 17.5684C15.3748 17.2568 15.7617 17.0324 16.1863 16.9175C16.795 16.755 18.1163 16.655 19.5038 16.5925L19.7163 16.5837L19.9313 16.5762L20.0388 16.5725L20.2525 16.5637C21.4421 16.5255 22.6323 16.5042 23.8225 16.5H24.0638V16.4987ZM22 20.5112V26.5337L27.1963 23.5237L22 20.5112Z" fill="#FAFAFA"/>
</g>
<defs>
<clipPath id="clip0_91_2487">
<rect width="20" height="20" fill="white" transform="translate(14 14)"/>
</clipPath>
</defs>
</svg>
